# xmcd
#
# Track frame offsets: 
#        150
#        18051
#        43005
#        59912
#        79665
#        87194
#        108024
#        132898
#        160006
#        176650
#        198582
#
# Disc length: 2833 seconds
#
# Revision: 0
# Processed by: cddbd v1.5.2PL0 Copyright (c) Steve Scherf et al.
# Submitted via: ExactAudioCopy v0.99pb5
#
DISCID=860b0f0b
DTITLE=Chris Garneau - Music For Tourists
DYEAR=2006
DGENRE=Indie Pop
TTITLE0=Castle-Time
TTITLE1=Black and Blue
TTITLE2=Relief
TTITLE3=So Far
TTITLE4=Hymn
TTITLE5=Baby's Romance
TTITLE6=Not Nice
TTITLE7=Sad News
TTITLE8=We Don't Try
TTITLE9=Halloween
TTITLE10=Between The Bars  (Elliott Smith cover)
EXTD=
EXTT0=
EXTT1=
EXTT2=
EXTT3=
EXTT4=
EXTT5=
EXTT6=
EXTT7=
EXTT8=
EXTT9=
EXTT10=
PLAYORDER=
